<mxfile host="app.diagrams.net" agent="Mozilla/5.0 (Windows NT 10.0; Win64; x64) AppleWebKit/537.36 (KHTML, like Gecko) Chrome/128.0.0.0 Safari/537.36" version="24.7.8">
  <diagram name="Page-1" id="c7558073-3199-34d8-9f00-42111426c3f3">
    <mxGraphModel dx="-108" dy="1372" grid="1" gridSize="10" guides="1" tooltips="1" connect="1" arrows="1" fold="1" page="1" pageScale="1" pageWidth="1169" pageHeight="827" background="none" math="0" shadow="0">
      <root>
        <mxCell id="0" />
        <mxCell id="1" parent="0" />
        <mxCell id="4" value="‏دوره تولید-&gt; مدل -&gt; لات -&gt; کانتینر -&gt; صندوق -&gt; قطعه" style="whiteSpace=wrap;align=center;verticalAlign=middle;fontStyle=0;strokeWidth=3;fillColor=#FFFFCC;fontFamily=Vazirmatn;fontSource=https%3A%2F%2Ffonts.googleapis.com%2Fcss%3Ffamily%3DVazirmatn;" parent="1" vertex="1">
          <mxGeometry x="1200" y="-240" width="370" height="60" as="geometry" />
        </mxCell>
        <mxCell id="ImeqDuy5QfRWBbxiFpZr-104" value="&lt;span style=&quot;font-weight: 700;&quot;&gt;برنامه ریزی&lt;/span&gt;" style="swimlane;fontStyle=0;childLayout=stackLayout;horizontal=1;startSize=30;horizontalStack=0;resizeParent=1;resizeParentMax=0;resizeLast=0;collapsible=1;marginBottom=0;whiteSpace=wrap;html=1;strokeWidth=3;rounded=1;fontFamily=Vazirmatn;fontSource=https%3A%2F%2Ffonts.googleapis.com%2Fcss%3Ffamily%3DVazirmatn;" vertex="1" parent="1">
          <mxGeometry x="1315" y="-390" width="140" height="120" as="geometry" />
        </mxCell>
        <mxCell id="ImeqDuy5QfRWBbxiFpZr-105" value="&lt;b&gt;ایجاد دوره تولید&lt;/b&gt;&lt;div&gt;مدل ،شرح مدل، تعداد&amp;nbsp;&lt;/div&gt;&lt;div&gt;&lt;span style=&quot;background-color: initial;&quot;&gt;لات&lt;/span&gt;&lt;br&gt;&lt;/div&gt;&lt;div&gt;&lt;span style=&quot;background-color: initial;&quot;&gt;یک دوره میتواند چند مدل&amp;nbsp; چند لات باشد&lt;/span&gt;&lt;/div&gt;" style="text;strokeColor=none;fillColor=none;align=center;verticalAlign=middle;spacingLeft=4;spacingRight=4;overflow=hidden;points=[[0,0.5],[1,0.5]];portConstraint=eastwest;rotatable=0;whiteSpace=wrap;html=1;strokeWidth=3;rounded=1;fontFamily=Vazirmatn;fontSource=https%3A%2F%2Ffonts.googleapis.com%2Fcss%3Ffamily%3DVazirmatn;" vertex="1" parent="ImeqDuy5QfRWBbxiFpZr-104">
          <mxGeometry y="30" width="140" height="90" as="geometry" />
        </mxCell>
        <mxCell id="ImeqDuy5QfRWBbxiFpZr-108" value="" style="endArrow=none;dashed=1;html=1;dashPattern=1 3;strokeWidth=2;rounded=0;exitX=0.5;exitY=0;exitDx=0;exitDy=0;entryX=0.521;entryY=1;entryDx=0;entryDy=0;entryPerimeter=0;" edge="1" parent="1" source="4" target="ImeqDuy5QfRWBbxiFpZr-105">
          <mxGeometry width="50" height="50" relative="1" as="geometry">
            <mxPoint x="1725" y="-400" as="sourcePoint" />
            <mxPoint x="1775" y="-450" as="targetPoint" />
          </mxGeometry>
        </mxCell>
        <mxCell id="ImeqDuy5QfRWBbxiFpZr-109" value="&lt;span style=&quot;font-weight: 700;&quot;&gt;مهندسی&lt;/span&gt;" style="swimlane;fontStyle=0;childLayout=stackLayout;horizontal=1;startSize=30;horizontalStack=0;resizeParent=1;resizeParentMax=0;resizeLast=0;collapsible=1;marginBottom=0;whiteSpace=wrap;html=1;strokeWidth=3;rounded=1;fontFamily=Vazirmatn;fontSource=https%3A%2F%2Ffonts.googleapis.com%2Fcss%3Ffamily%3DVazirmatn;" vertex="1" parent="1">
          <mxGeometry x="1495" y="-390" width="140" height="120" as="geometry" />
        </mxCell>
        <mxCell id="ImeqDuy5QfRWBbxiFpZr-110" value="&lt;b&gt;‮‏‏تعریف MOB برای دوره&lt;/b&gt;" style="text;strokeColor=none;fillColor=none;align=center;verticalAlign=middle;spacingLeft=4;spacingRight=4;overflow=hidden;points=[[0,0.5],[1,0.5]];portConstraint=eastwest;rotatable=0;whiteSpace=wrap;html=1;strokeWidth=3;rounded=1;fontFamily=Vazirmatn;fontSource=https%3A%2F%2Ffonts.googleapis.com%2Fcss%3Ffamily%3DVazirmatn;" vertex="1" parent="ImeqDuy5QfRWBbxiFpZr-109">
          <mxGeometry y="30" width="140" height="90" as="geometry" />
        </mxCell>
        <mxCell id="ImeqDuy5QfRWBbxiFpZr-111" value="&lt;span style=&quot;font-weight: 700;&quot;&gt;بازرگانی&lt;/span&gt;" style="swimlane;fontStyle=0;childLayout=stackLayout;horizontal=1;startSize=30;horizontalStack=0;resizeParent=1;resizeParentMax=0;resizeLast=0;collapsible=1;marginBottom=0;whiteSpace=wrap;html=1;strokeWidth=3;rounded=1;fontFamily=Vazirmatn;fontSource=https%3A%2F%2Ffonts.googleapis.com%2Fcss%3Ffamily%3DVazirmatn;" vertex="1" parent="1">
          <mxGeometry x="1495" y="-540" width="140" height="120" as="geometry" />
        </mxCell>
        <mxCell id="ImeqDuy5QfRWBbxiFpZr-112" value="&lt;b&gt;‮&amp;nbsp; تهیه فایل IPI&amp;nbsp;&lt;/b&gt;&lt;div&gt;&lt;b&gt;سفارش قطعات&lt;/b&gt;&lt;/div&gt;" style="text;strokeColor=none;fillColor=none;align=center;verticalAlign=middle;spacingLeft=4;spacingRight=4;overflow=hidden;points=[[0,0.5],[1,0.5]];portConstraint=eastwest;rotatable=0;whiteSpace=wrap;html=1;strokeWidth=3;rounded=1;fontFamily=Vazirmatn;fontSource=https%3A%2F%2Ffonts.googleapis.com%2Fcss%3Ffamily%3DVazirmatn;" vertex="1" parent="ImeqDuy5QfRWBbxiFpZr-111">
          <mxGeometry y="30" width="140" height="90" as="geometry" />
        </mxCell>
        <mxCell id="ImeqDuy5QfRWBbxiFpZr-113" value="&lt;b&gt;CIMS&lt;/b&gt;" style="swimlane;fontStyle=0;childLayout=stackLayout;horizontal=1;startSize=30;horizontalStack=0;resizeParent=1;resizeParentMax=0;resizeLast=0;collapsible=1;marginBottom=0;whiteSpace=wrap;html=1;strokeWidth=3;rounded=1;fontFamily=Vazirmatn;fontSource=https%3A%2F%2Ffonts.googleapis.com%2Fcss%3Ffamily%3DVazirmatn;" vertex="1" parent="1">
          <mxGeometry x="1695" y="-460" width="140" height="120" as="geometry" />
        </mxCell>
        <mxCell id="ImeqDuy5QfRWBbxiFpZr-114" value="&lt;b&gt;کنترل&lt;/b&gt;&lt;div&gt;&lt;b&gt;&amp;nbsp;BOM با IPI&lt;/b&gt;&lt;/div&gt;" style="text;strokeColor=none;fillColor=none;align=center;verticalAlign=middle;spacingLeft=4;spacingRight=4;overflow=hidden;points=[[0,0.5],[1,0.5]];portConstraint=eastwest;rotatable=0;whiteSpace=wrap;html=1;strokeWidth=3;rounded=1;fontFamily=Vazirmatn;fontSource=https%3A%2F%2Ffonts.googleapis.com%2Fcss%3Ffamily%3DVazirmatn;" vertex="1" parent="ImeqDuy5QfRWBbxiFpZr-113">
          <mxGeometry y="30" width="140" height="90" as="geometry" />
        </mxCell>
        <mxCell id="ImeqDuy5QfRWBbxiFpZr-118" value="&lt;b&gt;Dongfeng&lt;/b&gt;" style="swimlane;fontStyle=0;childLayout=stackLayout;horizontal=1;startSize=30;horizontalStack=0;resizeParent=1;resizeParentMax=0;resizeLast=0;collapsible=1;marginBottom=0;whiteSpace=wrap;html=1;strokeWidth=3;rounded=1;fontFamily=Vazirmatn;fontSource=https%3A%2F%2Ffonts.googleapis.com%2Fcss%3Ffamily%3DVazirmatn;" vertex="1" parent="1">
          <mxGeometry x="2055" y="-460" width="140" height="120" as="geometry" />
        </mxCell>
        <mxCell id="ImeqDuy5QfRWBbxiFpZr-119" value="&lt;b&gt;&amp;nbsp; تهیه و ارسال&lt;/b&gt;&lt;div&gt;&lt;b&gt;packing list&lt;/b&gt;&lt;/div&gt;" style="text;strokeColor=none;fillColor=none;align=center;verticalAlign=middle;spacingLeft=4;spacingRight=4;overflow=hidden;points=[[0,0.5],[1,0.5]];portConstraint=eastwest;rotatable=0;whiteSpace=wrap;html=1;strokeWidth=3;rounded=1;fontFamily=Vazirmatn;fontSource=https%3A%2F%2Ffonts.googleapis.com%2Fcss%3Ffamily%3DVazirmatn;" vertex="1" parent="ImeqDuy5QfRWBbxiFpZr-118">
          <mxGeometry y="30" width="140" height="90" as="geometry" />
        </mxCell>
        <mxCell id="ImeqDuy5QfRWBbxiFpZr-120" value="&lt;b&gt;بازرگانی&lt;/b&gt;" style="swimlane;fontStyle=0;childLayout=stackLayout;horizontal=1;startSize=30;horizontalStack=0;resizeParent=1;resizeParentMax=0;resizeLast=0;collapsible=1;marginBottom=0;whiteSpace=wrap;html=1;strokeWidth=3;rounded=1;fontFamily=Vazirmatn;fontSource=https%3A%2F%2Ffonts.googleapis.com%2Fcss%3Ffamily%3DVazirmatn;" vertex="1" parent="1">
          <mxGeometry x="2245" y="-460" width="140" height="120" as="geometry" />
        </mxCell>
        <mxCell id="ImeqDuy5QfRWBbxiFpZr-121" value="&lt;b&gt;دریافت&lt;/b&gt;&lt;div&gt;&lt;b&gt;PackingList&lt;/b&gt;&lt;/div&gt;" style="text;strokeColor=none;fillColor=none;align=center;verticalAlign=middle;spacingLeft=4;spacingRight=4;overflow=hidden;points=[[0,0.5],[1,0.5]];portConstraint=eastwest;rotatable=0;whiteSpace=wrap;html=1;strokeWidth=3;rounded=1;fontFamily=Vazirmatn;fontSource=https%3A%2F%2Ffonts.googleapis.com%2Fcss%3Ffamily%3DVazirmatn;" vertex="1" parent="ImeqDuy5QfRWBbxiFpZr-120">
          <mxGeometry y="30" width="140" height="90" as="geometry" />
        </mxCell>
        <mxCell id="ImeqDuy5QfRWBbxiFpZr-122" value="&lt;b&gt;CIMS&lt;/b&gt;" style="swimlane;fontStyle=0;childLayout=stackLayout;horizontal=1;startSize=30;horizontalStack=0;resizeParent=1;resizeParentMax=0;resizeLast=0;collapsible=1;marginBottom=0;whiteSpace=wrap;html=1;strokeWidth=3;rounded=1;fontFamily=Vazirmatn;fontSource=https%3A%2F%2Ffonts.googleapis.com%2Fcss%3Ffamily%3DVazirmatn;" vertex="1" parent="1">
          <mxGeometry x="2434" y="-460" width="140" height="120" as="geometry" />
        </mxCell>
        <mxCell id="ImeqDuy5QfRWBbxiFpZr-123" value="&lt;b&gt;کنترل&lt;/b&gt;&lt;div&gt;&lt;b&gt;&amp;nbsp;BOM با PackingList&lt;/b&gt;&lt;/div&gt;" style="text;strokeColor=none;fillColor=none;align=center;verticalAlign=middle;spacingLeft=4;spacingRight=4;overflow=hidden;points=[[0,0.5],[1,0.5]];portConstraint=eastwest;rotatable=0;whiteSpace=wrap;html=1;strokeWidth=3;rounded=1;fontFamily=Vazirmatn;fontSource=https%3A%2F%2Ffonts.googleapis.com%2Fcss%3Ffamily%3DVazirmatn;" vertex="1" parent="ImeqDuy5QfRWBbxiFpZr-122">
          <mxGeometry y="30" width="140" height="90" as="geometry" />
        </mxCell>
        <mxCell id="ImeqDuy5QfRWBbxiFpZr-124" value="کنترل کد کالا، مدل،تعداد بیشتر، تعداد کمتر، مشخصه فنی" style="whiteSpace=wrap;align=center;verticalAlign=middle;fontStyle=0;strokeWidth=3;fillColor=#FFFFCC;fontFamily=Vazirmatn;fontSource=https%3A%2F%2Ffonts.googleapis.com%2Fcss%3Ffamily%3DVazirmatn;" vertex="1" parent="1">
          <mxGeometry x="2338" y="-270" width="370" height="60" as="geometry" />
        </mxCell>
        <mxCell id="ImeqDuy5QfRWBbxiFpZr-125" value="&lt;b&gt;ایریسا&lt;/b&gt;" style="swimlane;fontStyle=0;childLayout=stackLayout;horizontal=1;startSize=30;horizontalStack=0;resizeParent=1;resizeParentMax=0;resizeLast=0;collapsible=1;marginBottom=0;whiteSpace=wrap;html=1;strokeWidth=3;rounded=1;fontFamily=Vazirmatn;fontSource=https%3A%2F%2Ffonts.googleapis.com%2Fcss%3Ffamily%3DVazirmatn;" vertex="1" parent="1">
          <mxGeometry x="2615" y="-460" width="140" height="120" as="geometry" />
        </mxCell>
        <mxCell id="ImeqDuy5QfRWBbxiFpZr-126" value="&lt;b&gt;پیشنهاد خرید ایریسا&lt;/b&gt;" style="text;strokeColor=none;fillColor=none;align=center;verticalAlign=middle;spacingLeft=4;spacingRight=4;overflow=hidden;points=[[0,0.5],[1,0.5]];portConstraint=eastwest;rotatable=0;whiteSpace=wrap;html=1;strokeWidth=3;rounded=1;fontFamily=Vazirmatn;fontSource=https%3A%2F%2Ffonts.googleapis.com%2Fcss%3Ffamily%3DVazirmatn;" vertex="1" parent="ImeqDuy5QfRWBbxiFpZr-125">
          <mxGeometry y="30" width="140" height="90" as="geometry" />
        </mxCell>
        <mxCell id="ImeqDuy5QfRWBbxiFpZr-250" style="edgeStyle=orthogonalEdgeStyle;rounded=0;orthogonalLoop=1;jettySize=auto;html=1;exitX=0.5;exitY=1;exitDx=0;exitDy=0;entryX=0.5;entryY=0;entryDx=0;entryDy=0;strokeWidth=3;" edge="1" parent="1" source="ImeqDuy5QfRWBbxiFpZr-147" target="ImeqDuy5QfRWBbxiFpZr-248">
          <mxGeometry relative="1" as="geometry" />
        </mxCell>
        <mxCell id="ImeqDuy5QfRWBbxiFpZr-147" value="رخدادهای کانتینری" style="shape=table;startSize=30;container=1;collapsible=0;childLayout=tableLayout;fixedRows=1;rowLines=0;fontStyle=0;strokeColor=default;fontSize=16;labelBorderColor=none;labelBackgroundColor=none;perimeterSpacing=2;fontFamily=Vazirmatn;fontSource=https%3A%2F%2Ffonts.googleapis.com%2Fcss%3Ffamily%3DVazirmatn;strokeWidth=3;" vertex="1" parent="1">
          <mxGeometry x="1280" width="320" height="420" as="geometry" />
        </mxCell>
        <mxCell id="ImeqDuy5QfRWBbxiFpZr-148" value="" style="shape=tableRow;horizontal=0;startSize=0;swimlaneHead=0;swimlaneBody=0;top=0;left=0;bottom=0;right=0;collapsible=0;dropTarget=0;fillColor=none;points=[[0,0.5],[1,0.5]];portConstraint=eastwest;strokeColor=default;fontSize=16;labelBackgroundColor=none;labelBorderColor=none;perimeterSpacing=2;strokeWidth=3;" vertex="1" parent="ImeqDuy5QfRWBbxiFpZr-147">
          <mxGeometry y="30" width="320" height="30" as="geometry" />
        </mxCell>
        <mxCell id="ImeqDuy5QfRWBbxiFpZr-149" value="1" style="shape=partialRectangle;html=1;whiteSpace=wrap;connectable=0;fillColor=none;top=0;left=0;bottom=0;right=0;overflow=hidden;pointerEvents=1;strokeColor=default;fontSize=16;labelBackgroundColor=none;labelBorderColor=none;perimeterSpacing=2;strokeWidth=3;" vertex="1" parent="ImeqDuy5QfRWBbxiFpZr-148">
          <mxGeometry width="40" height="30" as="geometry">
            <mxRectangle width="40" height="30" as="alternateBounds" />
          </mxGeometry>
        </mxCell>
        <mxCell id="ImeqDuy5QfRWBbxiFpZr-150" value="&lt;b style=&quot;font-family: Vazirmatn; font-size: 12px; text-align: right;&quot;&gt;در حال بارگیری و بسته بندی در کشور مبدا (بازرگانی)&lt;/b&gt;&lt;div&gt;&lt;b style=&quot;font-family: Vazirmatn; font-size: 12px; text-align: right;&quot;&gt;&lt;br&gt;&lt;/b&gt;&lt;/div&gt;" style="shape=partialRectangle;html=1;whiteSpace=wrap;connectable=0;fillColor=none;top=0;left=0;bottom=0;right=0;align=left;spacingLeft=6;overflow=hidden;strokeColor=default;fontSize=16;shadow=0;labelBackgroundColor=none;labelBorderColor=none;perimeterSpacing=2;strokeWidth=3;" vertex="1" parent="ImeqDuy5QfRWBbxiFpZr-148">
          <mxGeometry x="40" width="280" height="30" as="geometry">
            <mxRectangle width="280" height="30" as="alternateBounds" />
          </mxGeometry>
        </mxCell>
        <mxCell id="ImeqDuy5QfRWBbxiFpZr-151" value="" style="shape=tableRow;horizontal=0;startSize=0;swimlaneHead=0;swimlaneBody=0;top=0;left=0;bottom=0;right=0;collapsible=0;dropTarget=0;fillColor=none;points=[[0,0.5],[1,0.5]];portConstraint=eastwest;strokeColor=default;fontSize=16;labelBackgroundColor=none;labelBorderColor=none;perimeterSpacing=2;strokeWidth=3;" vertex="1" parent="ImeqDuy5QfRWBbxiFpZr-147">
          <mxGeometry y="60" width="320" height="30" as="geometry" />
        </mxCell>
        <mxCell id="ImeqDuy5QfRWBbxiFpZr-152" value="2" style="shape=partialRectangle;html=1;whiteSpace=wrap;connectable=0;fillColor=none;top=0;left=0;bottom=0;right=0;overflow=hidden;strokeColor=default;fontSize=16;labelBackgroundColor=none;labelBorderColor=none;perimeterSpacing=2;strokeWidth=3;" vertex="1" parent="ImeqDuy5QfRWBbxiFpZr-151">
          <mxGeometry width="40" height="30" as="geometry">
            <mxRectangle width="40" height="30" as="alternateBounds" />
          </mxGeometry>
        </mxCell>
        <mxCell id="ImeqDuy5QfRWBbxiFpZr-153" value="&lt;div style=&quot;font-family: Vazirmatn; font-size: 12px; text-align: right;&quot;&gt;&lt;b&gt;در حال حمل زمینی در کشور مبدا (بازرگانی)&lt;/b&gt;&lt;/div&gt;" style="shape=partialRectangle;html=1;whiteSpace=wrap;connectable=0;fillColor=none;top=0;left=0;bottom=0;right=0;align=left;spacingLeft=6;overflow=hidden;strokeColor=default;fontSize=16;labelBackgroundColor=none;labelBorderColor=none;perimeterSpacing=2;strokeWidth=3;" vertex="1" parent="ImeqDuy5QfRWBbxiFpZr-151">
          <mxGeometry x="40" width="280" height="30" as="geometry">
            <mxRectangle width="280" height="30" as="alternateBounds" />
          </mxGeometry>
        </mxCell>
        <mxCell id="ImeqDuy5QfRWBbxiFpZr-154" value="" style="shape=tableRow;horizontal=0;startSize=0;swimlaneHead=0;swimlaneBody=0;top=0;left=0;bottom=0;right=0;collapsible=0;dropTarget=0;fillColor=none;points=[[0,0.5],[1,0.5]];portConstraint=eastwest;strokeColor=default;fontSize=16;labelBackgroundColor=none;labelBorderColor=none;perimeterSpacing=2;strokeWidth=3;" vertex="1" parent="ImeqDuy5QfRWBbxiFpZr-147">
          <mxGeometry y="90" width="320" height="30" as="geometry" />
        </mxCell>
        <mxCell id="ImeqDuy5QfRWBbxiFpZr-155" value="3" style="shape=partialRectangle;html=1;whiteSpace=wrap;connectable=0;fillColor=none;top=0;left=0;bottom=0;right=0;overflow=hidden;strokeColor=default;fontSize=16;labelBackgroundColor=none;labelBorderColor=none;perimeterSpacing=2;strokeWidth=3;" vertex="1" parent="ImeqDuy5QfRWBbxiFpZr-154">
          <mxGeometry width="40" height="30" as="geometry">
            <mxRectangle width="40" height="30" as="alternateBounds" />
          </mxGeometry>
        </mxCell>
        <mxCell id="ImeqDuy5QfRWBbxiFpZr-156" value="&lt;div style=&quot;font-family: Vazirmatn; font-size: 12px; text-align: right;&quot;&gt;&lt;b&gt;در حال انتظار و بارگیری در بندر مبدا(بازرگانی)&lt;/b&gt;&lt;/div&gt;" style="shape=partialRectangle;html=1;whiteSpace=wrap;connectable=0;fillColor=none;top=0;left=0;bottom=0;right=0;align=left;spacingLeft=6;overflow=hidden;strokeColor=default;fontSize=16;labelBackgroundColor=none;labelBorderColor=none;perimeterSpacing=2;strokeWidth=3;" vertex="1" parent="ImeqDuy5QfRWBbxiFpZr-154">
          <mxGeometry x="40" width="280" height="30" as="geometry">
            <mxRectangle width="280" height="30" as="alternateBounds" />
          </mxGeometry>
        </mxCell>
        <mxCell id="ImeqDuy5QfRWBbxiFpZr-163" style="shape=tableRow;horizontal=0;startSize=0;swimlaneHead=0;swimlaneBody=0;top=0;left=0;bottom=0;right=0;collapsible=0;dropTarget=0;fillColor=none;points=[[0,0.5],[1,0.5]];portConstraint=eastwest;strokeColor=default;fontSize=16;labelBackgroundColor=none;labelBorderColor=none;perimeterSpacing=2;strokeWidth=3;" vertex="1" parent="ImeqDuy5QfRWBbxiFpZr-147">
          <mxGeometry y="120" width="320" height="30" as="geometry" />
        </mxCell>
        <mxCell id="ImeqDuy5QfRWBbxiFpZr-164" value="4" style="shape=partialRectangle;html=1;whiteSpace=wrap;connectable=0;fillColor=none;top=0;left=0;bottom=0;right=0;overflow=hidden;strokeColor=default;fontSize=16;labelBackgroundColor=none;labelBorderColor=none;perimeterSpacing=2;strokeWidth=3;" vertex="1" parent="ImeqDuy5QfRWBbxiFpZr-163">
          <mxGeometry width="40" height="30" as="geometry">
            <mxRectangle width="40" height="30" as="alternateBounds" />
          </mxGeometry>
        </mxCell>
        <mxCell id="ImeqDuy5QfRWBbxiFpZr-165" value="&lt;div style=&quot;forced-color-adjust: none; color: rgb(0, 0, 0); font-family: Vazirmatn; font-size: 12px; font-style: normal; font-variant-ligatures: normal; font-variant-caps: normal; font-weight: 400; letter-spacing: normal; orphans: 2; text-align: right; text-indent: 0px; text-transform: none; widows: 2; word-spacing: 0px; -webkit-text-stroke-width: 0px; white-space: normal; text-decoration-thickness: initial; text-decoration-style: initial; text-decoration-color: initial;&quot;&gt;&lt;b style=&quot;forced-color-adjust: none;&quot;&gt;در حال حمل دریایی(بازرگانی)&lt;/b&gt;&lt;/div&gt;" style="shape=partialRectangle;html=1;whiteSpace=wrap;connectable=0;fillColor=none;top=0;left=0;bottom=0;right=0;align=left;spacingLeft=6;overflow=hidden;strokeColor=default;fontSize=16;labelBackgroundColor=none;labelBorderColor=none;perimeterSpacing=2;strokeWidth=3;" vertex="1" parent="ImeqDuy5QfRWBbxiFpZr-163">
          <mxGeometry x="40" width="280" height="30" as="geometry">
            <mxRectangle width="280" height="30" as="alternateBounds" />
          </mxGeometry>
        </mxCell>
        <mxCell id="ImeqDuy5QfRWBbxiFpZr-178" style="shape=tableRow;horizontal=0;startSize=0;swimlaneHead=0;swimlaneBody=0;top=0;left=0;bottom=0;right=0;collapsible=0;dropTarget=0;fillColor=none;points=[[0,0.5],[1,0.5]];portConstraint=eastwest;strokeColor=default;fontSize=16;labelBackgroundColor=none;labelBorderColor=none;perimeterSpacing=2;strokeWidth=3;" vertex="1" parent="ImeqDuy5QfRWBbxiFpZr-147">
          <mxGeometry y="150" width="320" height="30" as="geometry" />
        </mxCell>
        <mxCell id="ImeqDuy5QfRWBbxiFpZr-179" value="5" style="shape=partialRectangle;html=1;whiteSpace=wrap;connectable=0;fillColor=none;top=0;left=0;bottom=0;right=0;overflow=hidden;strokeColor=default;fontSize=16;labelBackgroundColor=none;labelBorderColor=none;perimeterSpacing=2;strokeWidth=3;" vertex="1" parent="ImeqDuy5QfRWBbxiFpZr-178">
          <mxGeometry width="40" height="30" as="geometry">
            <mxRectangle width="40" height="30" as="alternateBounds" />
          </mxGeometry>
        </mxCell>
        <mxCell id="ImeqDuy5QfRWBbxiFpZr-180" value="&lt;div style=&quot;forced-color-adjust: none; color: rgb(0, 0, 0); font-family: Vazirmatn; font-size: 12px; font-style: normal; font-variant-ligatures: normal; font-variant-caps: normal; font-weight: 400; letter-spacing: normal; orphans: 2; text-align: right; text-indent: 0px; text-transform: none; widows: 2; word-spacing: 0px; -webkit-text-stroke-width: 0px; white-space: normal; text-decoration-thickness: initial; text-decoration-style: initial; text-decoration-color: initial;&quot;&gt;&lt;b style=&quot;forced-color-adjust: none;&quot;&gt;در حال انتظار و یا تخلیه در بندر داخلی(بازرگانی)&lt;/b&gt;&lt;/div&gt;" style="shape=partialRectangle;html=1;whiteSpace=wrap;connectable=0;fillColor=none;top=0;left=0;bottom=0;right=0;align=left;spacingLeft=6;overflow=hidden;strokeColor=default;fontSize=16;labelBackgroundColor=none;labelBorderColor=none;perimeterSpacing=2;strokeWidth=3;" vertex="1" parent="ImeqDuy5QfRWBbxiFpZr-178">
          <mxGeometry x="40" width="280" height="30" as="geometry">
            <mxRectangle width="280" height="30" as="alternateBounds" />
          </mxGeometry>
        </mxCell>
        <mxCell id="ImeqDuy5QfRWBbxiFpZr-175" style="shape=tableRow;horizontal=0;startSize=0;swimlaneHead=0;swimlaneBody=0;top=0;left=0;bottom=0;right=0;collapsible=0;dropTarget=0;fillColor=none;points=[[0,0.5],[1,0.5]];portConstraint=eastwest;strokeColor=default;fontSize=16;labelBackgroundColor=none;labelBorderColor=none;perimeterSpacing=2;strokeWidth=3;" vertex="1" parent="ImeqDuy5QfRWBbxiFpZr-147">
          <mxGeometry y="180" width="320" height="30" as="geometry" />
        </mxCell>
        <mxCell id="ImeqDuy5QfRWBbxiFpZr-176" value="6" style="shape=partialRectangle;html=1;whiteSpace=wrap;connectable=0;fillColor=none;top=0;left=0;bottom=0;right=0;overflow=hidden;strokeColor=default;fontSize=16;labelBackgroundColor=none;labelBorderColor=none;perimeterSpacing=2;strokeWidth=3;" vertex="1" parent="ImeqDuy5QfRWBbxiFpZr-175">
          <mxGeometry width="40" height="30" as="geometry">
            <mxRectangle width="40" height="30" as="alternateBounds" />
          </mxGeometry>
        </mxCell>
        <mxCell id="ImeqDuy5QfRWBbxiFpZr-177" value="&lt;div style=&quot;forced-color-adjust: none; color: rgb(0, 0, 0); font-family: Vazirmatn; font-size: 12px; font-style: normal; font-variant-ligatures: normal; font-variant-caps: normal; font-weight: 400; letter-spacing: normal; orphans: 2; text-align: right; text-indent: 0px; text-transform: none; widows: 2; word-spacing: 0px; -webkit-text-stroke-width: 0px; white-space: normal; text-decoration-thickness: initial; text-decoration-style: initial; text-decoration-color: initial;&quot;&gt;&lt;b style=&quot;forced-color-adjust: none;&quot;&gt;در حال حمل زمینی به کارخانه (بازرگانی)&lt;/b&gt;&lt;/div&gt;" style="shape=partialRectangle;html=1;whiteSpace=wrap;connectable=0;fillColor=none;top=0;left=0;bottom=0;right=0;align=left;spacingLeft=6;overflow=hidden;strokeColor=default;fontSize=16;labelBackgroundColor=none;labelBorderColor=none;perimeterSpacing=2;strokeWidth=3;" vertex="1" parent="ImeqDuy5QfRWBbxiFpZr-175">
          <mxGeometry x="40" width="280" height="30" as="geometry">
            <mxRectangle width="280" height="30" as="alternateBounds" />
          </mxGeometry>
        </mxCell>
        <mxCell id="ImeqDuy5QfRWBbxiFpZr-172" style="shape=tableRow;horizontal=0;startSize=0;swimlaneHead=0;swimlaneBody=0;top=0;left=0;bottom=0;right=0;collapsible=0;dropTarget=0;fillColor=none;points=[[0,0.5],[1,0.5]];portConstraint=eastwest;strokeColor=default;fontSize=16;labelBackgroundColor=none;labelBorderColor=none;perimeterSpacing=2;strokeWidth=3;" vertex="1" parent="ImeqDuy5QfRWBbxiFpZr-147">
          <mxGeometry y="210" width="320" height="30" as="geometry" />
        </mxCell>
        <mxCell id="ImeqDuy5QfRWBbxiFpZr-173" value="7" style="shape=partialRectangle;html=1;whiteSpace=wrap;connectable=0;fillColor=none;top=0;left=0;bottom=0;right=0;overflow=hidden;strokeColor=default;fontSize=16;labelBackgroundColor=none;labelBorderColor=none;perimeterSpacing=2;strokeWidth=3;" vertex="1" parent="ImeqDuy5QfRWBbxiFpZr-172">
          <mxGeometry width="40" height="30" as="geometry">
            <mxRectangle width="40" height="30" as="alternateBounds" />
          </mxGeometry>
        </mxCell>
        <mxCell id="ImeqDuy5QfRWBbxiFpZr-174" value="&lt;div style=&quot;forced-color-adjust: none; color: rgb(0, 0, 0); font-family: Vazirmatn; font-size: 12px; font-style: normal; font-variant-ligatures: normal; font-variant-caps: normal; font-weight: 400; letter-spacing: normal; orphans: 2; text-align: right; text-indent: 0px; text-transform: none; widows: 2; word-spacing: 0px; -webkit-text-stroke-width: 0px; white-space: normal; text-decoration-thickness: initial; text-decoration-style: initial; text-decoration-color: initial;&quot;&gt;&lt;b style=&quot;forced-color-adjust: none;&quot;&gt;در حال انبارش و در گمرک داخلی(لجستیک/ثبت راننده)&lt;/b&gt;&lt;/div&gt;" style="shape=partialRectangle;html=1;whiteSpace=wrap;connectable=0;fillColor=none;top=0;left=0;bottom=0;right=0;align=left;spacingLeft=6;overflow=hidden;strokeColor=default;fontSize=16;labelBackgroundColor=none;labelBorderColor=none;perimeterSpacing=2;strokeWidth=3;" vertex="1" parent="ImeqDuy5QfRWBbxiFpZr-172">
          <mxGeometry x="40" width="280" height="30" as="geometry">
            <mxRectangle width="280" height="30" as="alternateBounds" />
          </mxGeometry>
        </mxCell>
        <mxCell id="ImeqDuy5QfRWBbxiFpZr-169" style="shape=tableRow;horizontal=0;startSize=0;swimlaneHead=0;swimlaneBody=0;top=0;left=0;bottom=0;right=0;collapsible=0;dropTarget=0;fillColor=none;points=[[0,0.5],[1,0.5]];portConstraint=eastwest;strokeColor=default;fontSize=16;labelBackgroundColor=none;labelBorderColor=none;perimeterSpacing=2;strokeWidth=3;" vertex="1" parent="ImeqDuy5QfRWBbxiFpZr-147">
          <mxGeometry y="240" width="320" height="30" as="geometry" />
        </mxCell>
        <mxCell id="ImeqDuy5QfRWBbxiFpZr-170" value="8" style="shape=partialRectangle;html=1;whiteSpace=wrap;connectable=0;fillColor=none;top=0;left=0;bottom=0;right=0;overflow=hidden;strokeColor=default;fontSize=16;labelBackgroundColor=none;labelBorderColor=none;perimeterSpacing=2;strokeWidth=3;" vertex="1" parent="ImeqDuy5QfRWBbxiFpZr-169">
          <mxGeometry width="40" height="30" as="geometry">
            <mxRectangle width="40" height="30" as="alternateBounds" />
          </mxGeometry>
        </mxCell>
        <mxCell id="ImeqDuy5QfRWBbxiFpZr-171" value="&lt;div style=&quot;forced-color-adjust: none; color: rgb(0, 0, 0); font-family: Vazirmatn; font-size: 12px; font-style: normal; font-variant-ligatures: normal; font-variant-caps: normal; font-weight: 400; letter-spacing: normal; orphans: 2; text-align: right; text-indent: 0px; text-transform: none; widows: 2; word-spacing: 0px; -webkit-text-stroke-width: 0px; white-space: normal; text-decoration-thickness: initial; text-decoration-style: initial; text-decoration-color: initial;&quot;&gt;&lt;b style=&quot;forced-color-adjust: none;&quot;&gt;انبارش در گمرک داخلی(لجستیک)&lt;/b&gt;&lt;/div&gt;" style="shape=partialRectangle;html=1;whiteSpace=wrap;connectable=0;fillColor=none;top=0;left=0;bottom=0;right=0;align=left;spacingLeft=6;overflow=hidden;strokeColor=default;fontSize=16;labelBackgroundColor=none;labelBorderColor=none;perimeterSpacing=2;strokeWidth=3;" vertex="1" parent="ImeqDuy5QfRWBbxiFpZr-169">
          <mxGeometry x="40" width="280" height="30" as="geometry">
            <mxRectangle width="280" height="30" as="alternateBounds" />
          </mxGeometry>
        </mxCell>
        <mxCell id="ImeqDuy5QfRWBbxiFpZr-166" style="shape=tableRow;horizontal=0;startSize=0;swimlaneHead=0;swimlaneBody=0;top=0;left=0;bottom=0;right=0;collapsible=0;dropTarget=0;fillColor=none;points=[[0,0.5],[1,0.5]];portConstraint=eastwest;strokeColor=default;fontSize=16;labelBackgroundColor=none;labelBorderColor=none;perimeterSpacing=2;strokeWidth=3;" vertex="1" parent="ImeqDuy5QfRWBbxiFpZr-147">
          <mxGeometry y="270" width="320" height="30" as="geometry" />
        </mxCell>
        <mxCell id="ImeqDuy5QfRWBbxiFpZr-167" value="9" style="shape=partialRectangle;html=1;whiteSpace=wrap;connectable=0;fillColor=none;top=0;left=0;bottom=0;right=0;overflow=hidden;strokeColor=default;fontSize=16;labelBackgroundColor=none;labelBorderColor=none;perimeterSpacing=2;strokeWidth=3;" vertex="1" parent="ImeqDuy5QfRWBbxiFpZr-166">
          <mxGeometry width="40" height="30" as="geometry">
            <mxRectangle width="40" height="30" as="alternateBounds" />
          </mxGeometry>
        </mxCell>
        <mxCell id="ImeqDuy5QfRWBbxiFpZr-168" value="&lt;div style=&quot;forced-color-adjust: none; color: rgb(0, 0, 0); font-family: Vazirmatn; font-size: 12px; font-style: normal; font-variant-ligatures: normal; font-variant-caps: normal; font-weight: 400; letter-spacing: normal; orphans: 2; text-align: right; text-indent: 0px; text-transform: none; widows: 2; word-spacing: 0px; -webkit-text-stroke-width: 0px; white-space: normal; text-decoration-thickness: initial; text-decoration-style: initial; text-decoration-color: initial;&quot;&gt;&lt;b style=&quot;forced-color-adjust: none;&quot;&gt;اتمام عملیات ترخیص و در حال اطلاع رسانی&lt;/b&gt;&lt;b style=&quot;forced-color-adjust: none;&quot;&gt;(لجستیک)&lt;/b&gt;&lt;/div&gt;" style="shape=partialRectangle;html=1;whiteSpace=wrap;connectable=0;fillColor=none;top=0;left=0;bottom=0;right=0;align=left;spacingLeft=6;overflow=hidden;strokeColor=default;fontSize=16;labelBackgroundColor=none;labelBorderColor=none;perimeterSpacing=2;strokeWidth=3;" vertex="1" parent="ImeqDuy5QfRWBbxiFpZr-166">
          <mxGeometry x="40" width="280" height="30" as="geometry">
            <mxRectangle width="280" height="30" as="alternateBounds" />
          </mxGeometry>
        </mxCell>
        <mxCell id="ImeqDuy5QfRWBbxiFpZr-184" style="shape=tableRow;horizontal=0;startSize=0;swimlaneHead=0;swimlaneBody=0;top=0;left=0;bottom=0;right=0;collapsible=0;dropTarget=0;fillColor=none;points=[[0,0.5],[1,0.5]];portConstraint=eastwest;strokeColor=default;fontSize=16;labelBackgroundColor=none;labelBorderColor=none;perimeterSpacing=2;strokeWidth=3;" vertex="1" parent="ImeqDuy5QfRWBbxiFpZr-147">
          <mxGeometry y="300" width="320" height="30" as="geometry" />
        </mxCell>
        <mxCell id="ImeqDuy5QfRWBbxiFpZr-185" value="10" style="shape=partialRectangle;html=1;whiteSpace=wrap;connectable=0;fillColor=none;top=0;left=0;bottom=0;right=0;overflow=hidden;strokeColor=default;fontSize=16;labelBackgroundColor=none;labelBorderColor=none;perimeterSpacing=2;strokeWidth=3;" vertex="1" parent="ImeqDuy5QfRWBbxiFpZr-184">
          <mxGeometry width="40" height="30" as="geometry">
            <mxRectangle width="40" height="30" as="alternateBounds" />
          </mxGeometry>
        </mxCell>
        <mxCell id="ImeqDuy5QfRWBbxiFpZr-186" value="&lt;div style=&quot;forced-color-adjust: none; color: rgb(0, 0, 0); font-family: Vazirmatn; font-size: 12px; font-style: normal; font-variant-ligatures: normal; font-variant-caps: normal; font-weight: 400; letter-spacing: normal; orphans: 2; text-align: right; text-indent: 0px; text-transform: none; widows: 2; word-spacing: 0px; -webkit-text-stroke-width: 0px; white-space: normal; text-decoration-thickness: initial; text-decoration-style: initial; text-decoration-color: initial;&quot;&gt;&lt;b style=&quot;forced-color-adjust: none;&quot;&gt;در حال تخلیه/انبارش در محوطه کانتینری&lt;/b&gt;&lt;b style=&quot;forced-color-adjust: none;&quot;&gt;(لجستیک)&lt;/b&gt;&lt;/div&gt;" style="shape=partialRectangle;html=1;whiteSpace=wrap;connectable=0;fillColor=none;top=0;left=0;bottom=0;right=0;align=left;spacingLeft=6;overflow=hidden;strokeColor=default;fontSize=16;labelBackgroundColor=none;labelBorderColor=none;perimeterSpacing=2;strokeWidth=3;" vertex="1" parent="ImeqDuy5QfRWBbxiFpZr-184">
          <mxGeometry x="40" width="280" height="30" as="geometry">
            <mxRectangle width="280" height="30" as="alternateBounds" />
          </mxGeometry>
        </mxCell>
        <mxCell id="ImeqDuy5QfRWBbxiFpZr-181" style="shape=tableRow;horizontal=0;startSize=0;swimlaneHead=0;swimlaneBody=0;top=0;left=0;bottom=0;right=0;collapsible=0;dropTarget=0;fillColor=none;points=[[0,0.5],[1,0.5]];portConstraint=eastwest;strokeColor=default;fontSize=16;labelBackgroundColor=none;labelBorderColor=none;perimeterSpacing=2;strokeWidth=3;" vertex="1" parent="ImeqDuy5QfRWBbxiFpZr-147">
          <mxGeometry y="330" width="320" height="30" as="geometry" />
        </mxCell>
        <mxCell id="ImeqDuy5QfRWBbxiFpZr-182" value="11" style="shape=partialRectangle;html=1;whiteSpace=wrap;connectable=0;fillColor=none;top=0;left=0;bottom=0;right=0;overflow=hidden;strokeColor=default;fontSize=16;labelBackgroundColor=none;labelBorderColor=none;perimeterSpacing=2;strokeWidth=3;" vertex="1" parent="ImeqDuy5QfRWBbxiFpZr-181">
          <mxGeometry width="40" height="30" as="geometry">
            <mxRectangle width="40" height="30" as="alternateBounds" />
          </mxGeometry>
        </mxCell>
        <mxCell id="ImeqDuy5QfRWBbxiFpZr-183" value="&lt;div style=&quot;forced-color-adjust: none; color: rgb(0, 0, 0); font-family: Vazirmatn; font-size: 12px; font-style: normal; font-variant-ligatures: normal; font-variant-caps: normal; letter-spacing: normal; orphans: 2; text-align: right; text-indent: 0px; text-transform: none; widows: 2; word-spacing: 0px; -webkit-text-stroke-width: 0px; white-space: normal; text-decoration-thickness: initial; text-decoration-style: initial; text-decoration-color: initial;&quot;&gt;&lt;span style=&quot;forced-color-adjust: none;&quot;&gt;اتمام عملیات تخلیه و در انتظار خروج&lt;/span&gt;&lt;span style=&quot;forced-color-adjust: none;&quot;&gt;(لجستیک)&lt;/span&gt;&lt;/div&gt;" style="shape=partialRectangle;html=1;whiteSpace=wrap;connectable=0;fillColor=#E6E6E6;top=0;left=0;bottom=0;right=0;align=left;spacingLeft=6;overflow=hidden;strokeColor=default;fontSize=16;labelBackgroundColor=none;labelBorderColor=none;perimeterSpacing=2;fontStyle=1;strokeWidth=3;" vertex="1" parent="ImeqDuy5QfRWBbxiFpZr-181">
          <mxGeometry x="40" width="280" height="30" as="geometry">
            <mxRectangle width="280" height="30" as="alternateBounds" />
          </mxGeometry>
        </mxCell>
        <mxCell id="ImeqDuy5QfRWBbxiFpZr-187" style="shape=tableRow;horizontal=0;startSize=0;swimlaneHead=0;swimlaneBody=0;top=0;left=0;bottom=0;right=0;collapsible=0;dropTarget=0;fillColor=none;points=[[0,0.5],[1,0.5]];portConstraint=eastwest;strokeColor=default;fontSize=16;labelBackgroundColor=none;labelBorderColor=none;perimeterSpacing=2;strokeWidth=3;" vertex="1" parent="ImeqDuy5QfRWBbxiFpZr-147">
          <mxGeometry y="360" width="320" height="30" as="geometry" />
        </mxCell>
        <mxCell id="ImeqDuy5QfRWBbxiFpZr-188" value="12" style="shape=partialRectangle;html=1;whiteSpace=wrap;connectable=0;fillColor=none;top=0;left=0;bottom=0;right=0;overflow=hidden;strokeColor=default;fontSize=16;labelBackgroundColor=none;labelBorderColor=none;perimeterSpacing=2;strokeWidth=3;" vertex="1" parent="ImeqDuy5QfRWBbxiFpZr-187">
          <mxGeometry width="40" height="30" as="geometry">
            <mxRectangle width="40" height="30" as="alternateBounds" />
          </mxGeometry>
        </mxCell>
        <mxCell id="ImeqDuy5QfRWBbxiFpZr-189" value="&lt;div style=&quot;forced-color-adjust: none; color: rgb(0, 0, 0); font-family: Vazirmatn; font-size: 12px; font-style: normal; font-variant-ligatures: normal; font-variant-caps: normal; font-weight: 400; letter-spacing: normal; orphans: 2; text-align: right; text-indent: 0px; text-transform: none; widows: 2; word-spacing: 0px; -webkit-text-stroke-width: 0px; white-space: normal; text-decoration-thickness: initial; text-decoration-style: initial; text-decoration-color: initial;&quot;&gt;&lt;b style=&quot;forced-color-adjust: none;&quot;&gt;اتمام عملیات خروج&lt;/b&gt;&lt;b style=&quot;forced-color-adjust: none;&quot;&gt;(لجستیک/ثبت راننده)&lt;/b&gt;&lt;/div&gt;" style="shape=partialRectangle;html=1;whiteSpace=wrap;connectable=0;fillColor=none;top=0;left=0;bottom=0;right=0;align=left;spacingLeft=6;overflow=hidden;strokeColor=default;fontSize=16;labelBackgroundColor=none;labelBorderColor=none;perimeterSpacing=2;strokeWidth=3;" vertex="1" parent="ImeqDuy5QfRWBbxiFpZr-187">
          <mxGeometry x="40" width="280" height="30" as="geometry">
            <mxRectangle width="280" height="30" as="alternateBounds" />
          </mxGeometry>
        </mxCell>
        <mxCell id="ImeqDuy5QfRWBbxiFpZr-190" style="shape=tableRow;horizontal=0;startSize=0;swimlaneHead=0;swimlaneBody=0;top=0;left=0;bottom=0;right=0;collapsible=0;dropTarget=0;fillColor=none;points=[[0,0.5],[1,0.5]];portConstraint=eastwest;strokeColor=default;fontSize=16;labelBackgroundColor=none;labelBorderColor=none;perimeterSpacing=2;strokeWidth=3;" vertex="1" parent="ImeqDuy5QfRWBbxiFpZr-147">
          <mxGeometry y="390" width="320" height="30" as="geometry" />
        </mxCell>
        <mxCell id="ImeqDuy5QfRWBbxiFpZr-191" value="13" style="shape=partialRectangle;html=1;whiteSpace=wrap;connectable=0;fillColor=none;top=0;left=0;bottom=0;right=0;overflow=hidden;strokeColor=default;fontSize=16;labelBackgroundColor=none;labelBorderColor=none;perimeterSpacing=2;strokeWidth=3;" vertex="1" parent="ImeqDuy5QfRWBbxiFpZr-190">
          <mxGeometry width="40" height="30" as="geometry">
            <mxRectangle width="40" height="30" as="alternateBounds" />
          </mxGeometry>
        </mxCell>
        <mxCell id="ImeqDuy5QfRWBbxiFpZr-192" value="&lt;b style=&quot;forced-color-adjust: none; color: rgb(0, 0, 0); font-family: Vazirmatn; font-size: 12px; font-style: normal; font-variant-ligatures: normal; font-variant-caps: normal; letter-spacing: normal; orphans: 2; text-align: right; text-indent: 0px; text-transform: none; widows: 2; word-spacing: 0px; -webkit-text-stroke-width: 0px; white-space: normal; text-decoration-thickness: initial; text-decoration-style: initial; text-decoration-color: initial;&quot;&gt;(لجستیک)&lt;/b&gt;&lt;b style=&quot;forced-color-adjust: none; color: rgb(0, 0, 0); font-family: Vazirmatn; font-size: 12px; font-style: normal; font-variant-ligatures: normal; font-variant-caps: normal; letter-spacing: normal; orphans: 2; text-align: right; text-indent: 0px; text-transform: none; widows: 2; word-spacing: 0px; -webkit-text-stroke-width: 0px; white-space: normal; text-decoration-thickness: initial; text-decoration-style: initial; text-decoration-color: initial;&quot;&gt;خروج از شرکت&lt;/b&gt;" style="shape=partialRectangle;html=1;whiteSpace=wrap;connectable=0;fillColor=none;top=0;left=0;bottom=0;right=0;align=left;spacingLeft=6;overflow=hidden;strokeColor=default;fontSize=16;labelBackgroundColor=none;labelBorderColor=none;perimeterSpacing=2;strokeWidth=3;" vertex="1" parent="ImeqDuy5QfRWBbxiFpZr-190">
          <mxGeometry x="40" width="280" height="30" as="geometry">
            <mxRectangle width="280" height="30" as="alternateBounds" />
          </mxGeometry>
        </mxCell>
        <mxCell id="ImeqDuy5QfRWBbxiFpZr-194" value="&lt;b&gt;محوطه بازگشایی فیزیکی&lt;/b&gt;" style="swimlane;fontStyle=0;childLayout=stackLayout;horizontal=1;startSize=30;horizontalStack=0;resizeParent=1;resizeParentMax=0;resizeLast=0;collapsible=1;marginBottom=0;whiteSpace=wrap;html=1;strokeWidth=3;rounded=1;fontFamily=Vazirmatn;fontSource=https%3A%2F%2Ffonts.googleapis.com%2Fcss%3Ffamily%3DVazirmatn;" vertex="1" parent="1">
          <mxGeometry x="1660" y="269" width="140" height="120" as="geometry" />
        </mxCell>
        <mxCell id="ImeqDuy5QfRWBbxiFpZr-195" value="&lt;b&gt;بازگشایی کانتینر&lt;/b&gt;" style="text;strokeColor=none;fillColor=none;align=center;verticalAlign=middle;spacingLeft=4;spacingRight=4;overflow=hidden;points=[[0,0.5],[1,0.5]];portConstraint=eastwest;rotatable=0;whiteSpace=wrap;html=1;strokeWidth=3;rounded=1;fontFamily=Vazirmatn;fontSource=https%3A%2F%2Ffonts.googleapis.com%2Fcss%3Ffamily%3DVazirmatn;" vertex="1" parent="ImeqDuy5QfRWBbxiFpZr-194">
          <mxGeometry y="30" width="140" height="90" as="geometry" />
        </mxCell>
        <mxCell id="ImeqDuy5QfRWBbxiFpZr-239" style="edgeStyle=orthogonalEdgeStyle;rounded=0;orthogonalLoop=1;jettySize=auto;html=1;exitX=0.5;exitY=1;exitDx=0;exitDy=0;entryX=0.5;entryY=0;entryDx=0;entryDy=0;strokeWidth=3;" edge="1" parent="1" source="ImeqDuy5QfRWBbxiFpZr-196" target="ImeqDuy5QfRWBbxiFpZr-200">
          <mxGeometry relative="1" as="geometry" />
        </mxCell>
        <mxCell id="ImeqDuy5QfRWBbxiFpZr-196" value="&lt;b&gt;ایریسا&lt;/b&gt;" style="swimlane;fontStyle=0;childLayout=stackLayout;horizontal=1;startSize=30;horizontalStack=0;resizeParent=1;resizeParentMax=0;resizeLast=0;collapsible=1;marginBottom=0;whiteSpace=wrap;html=1;strokeWidth=3;rounded=1;fontFamily=Vazirmatn;fontSource=https%3A%2F%2Ffonts.googleapis.com%2Fcss%3Ffamily%3DVazirmatn;" vertex="1" parent="1">
          <mxGeometry x="1840" y="269" width="140" height="120" as="geometry" />
        </mxCell>
        <mxCell id="ImeqDuy5QfRWBbxiFpZr-238" style="edgeStyle=orthogonalEdgeStyle;rounded=0;orthogonalLoop=1;jettySize=auto;html=1;exitX=1;exitY=0.5;exitDx=0;exitDy=0;strokeWidth=3;" edge="1" parent="ImeqDuy5QfRWBbxiFpZr-196" source="ImeqDuy5QfRWBbxiFpZr-197">
          <mxGeometry relative="1" as="geometry">
            <mxPoint x="180" y="74.66666666666697" as="targetPoint" />
          </mxGeometry>
        </mxCell>
        <mxCell id="ImeqDuy5QfRWBbxiFpZr-197" value="&lt;b&gt;صدور برگ ارسال&lt;/b&gt;&lt;div&gt;&lt;b&gt;اعلامیه ورود&lt;/b&gt;&lt;/div&gt;&lt;div&gt;&lt;b style=&quot;background-color: initial;&quot;&gt;رسید کامل&lt;/b&gt;&lt;br&gt;&lt;/div&gt;&lt;div&gt;&lt;b style=&quot;background-color: initial;&quot;&gt;کل کانتینر&lt;/b&gt;&lt;/div&gt;" style="text;strokeColor=none;fillColor=none;align=center;verticalAlign=middle;spacingLeft=4;spacingRight=4;overflow=hidden;points=[[0,0.5],[1,0.5]];portConstraint=eastwest;rotatable=0;whiteSpace=wrap;html=1;strokeWidth=3;rounded=1;fontFamily=Vazirmatn;fontSource=https%3A%2F%2Ffonts.googleapis.com%2Fcss%3Ffamily%3DVazirmatn;" vertex="1" parent="ImeqDuy5QfRWBbxiFpZr-196">
          <mxGeometry y="30" width="140" height="90" as="geometry" />
        </mxCell>
        <mxCell id="ImeqDuy5QfRWBbxiFpZr-198" value="&lt;b&gt;ایریسا&lt;/b&gt;" style="swimlane;fontStyle=0;childLayout=stackLayout;horizontal=1;startSize=30;horizontalStack=0;resizeParent=1;resizeParentMax=0;resizeLast=0;collapsible=1;marginBottom=0;whiteSpace=wrap;html=1;strokeWidth=3;rounded=1;fontFamily=Vazirmatn;fontSource=https%3A%2F%2Ffonts.googleapis.com%2Fcss%3Ffamily%3DVazirmatn;" vertex="1" parent="1">
          <mxGeometry x="2030" y="269" width="140" height="120" as="geometry" />
        </mxCell>
        <mxCell id="ImeqDuy5QfRWBbxiFpZr-199" value="&lt;b&gt;جابه جایی صندوق‌ها بین دو&amp;nbsp;&lt;/b&gt;&lt;b style=&quot;background-color: initial;&quot;&gt;انبار&lt;/b&gt;&lt;div&gt;&lt;b&gt;(مونتاژ،بدنه،رنگ)&lt;/b&gt;&lt;/div&gt;" style="text;strokeColor=none;fillColor=none;align=center;verticalAlign=middle;spacingLeft=4;spacingRight=4;overflow=hidden;points=[[0,0.5],[1,0.5]];portConstraint=eastwest;rotatable=0;whiteSpace=wrap;html=1;strokeWidth=3;rounded=1;fontFamily=Vazirmatn;fontSource=https%3A%2F%2Ffonts.googleapis.com%2Fcss%3Ffamily%3DVazirmatn;" vertex="1" parent="ImeqDuy5QfRWBbxiFpZr-198">
          <mxGeometry y="30" width="140" height="90" as="geometry" />
        </mxCell>
        <mxCell id="ImeqDuy5QfRWBbxiFpZr-200" value="&lt;b&gt;cims&lt;/b&gt;" style="swimlane;fontStyle=0;childLayout=stackLayout;horizontal=1;startSize=30;horizontalStack=0;resizeParent=1;resizeParentMax=0;resizeLast=0;collapsible=1;marginBottom=0;whiteSpace=wrap;html=1;strokeWidth=3;rounded=1;fontFamily=Vazirmatn;fontSource=https%3A%2F%2Ffonts.googleapis.com%2Fcss%3Ffamily%3DVazirmatn;" vertex="1" parent="1">
          <mxGeometry x="1840" y="429" width="140" height="120" as="geometry" />
        </mxCell>
        <mxCell id="ImeqDuy5QfRWBbxiFpZr-201" value="&lt;b&gt;&amp;nbsp;کلیم صندوق&lt;/b&gt;" style="text;strokeColor=none;fillColor=none;align=center;verticalAlign=middle;spacingLeft=4;spacingRight=4;overflow=hidden;points=[[0,0.5],[1,0.5]];portConstraint=eastwest;rotatable=0;whiteSpace=wrap;html=1;strokeWidth=3;rounded=1;fontFamily=Vazirmatn;fontSource=https%3A%2F%2Ffonts.googleapis.com%2Fcss%3Ffamily%3DVazirmatn;" vertex="1" parent="ImeqDuy5QfRWBbxiFpZr-200">
          <mxGeometry y="30" width="140" height="90" as="geometry" />
        </mxCell>
        <mxCell id="ImeqDuy5QfRWBbxiFpZr-202" value="&lt;b&gt;&amp;nbsp;فیزیکی انبار&lt;/b&gt;" style="swimlane;fontStyle=0;childLayout=stackLayout;horizontal=1;startSize=30;horizontalStack=0;resizeParent=1;resizeParentMax=0;resizeLast=0;collapsible=1;marginBottom=0;whiteSpace=wrap;html=1;strokeWidth=3;rounded=1;fontFamily=Vazirmatn;fontSource=https%3A%2F%2Ffonts.googleapis.com%2Fcss%3Ffamily%3DVazirmatn;" vertex="1" parent="1">
          <mxGeometry x="2220" y="269" width="140" height="120" as="geometry" />
        </mxCell>
        <mxCell id="ImeqDuy5QfRWBbxiFpZr-203" value="&lt;b&gt;دریافت کالا در انبار&lt;/b&gt;" style="text;strokeColor=none;fillColor=none;align=center;verticalAlign=middle;spacingLeft=4;spacingRight=4;overflow=hidden;points=[[0,0.5],[1,0.5]];portConstraint=eastwest;rotatable=0;whiteSpace=wrap;html=1;strokeWidth=3;rounded=1;fontFamily=Vazirmatn;fontSource=https%3A%2F%2Ffonts.googleapis.com%2Fcss%3Ffamily%3DVazirmatn;" vertex="1" parent="ImeqDuy5QfRWBbxiFpZr-202">
          <mxGeometry y="30" width="140" height="90" as="geometry" />
        </mxCell>
        <mxCell id="ImeqDuy5QfRWBbxiFpZr-204" value="&lt;b&gt;cims&lt;/b&gt;" style="swimlane;fontStyle=0;childLayout=stackLayout;horizontal=1;startSize=30;horizontalStack=0;resizeParent=1;resizeParentMax=0;resizeLast=0;collapsible=1;marginBottom=0;whiteSpace=wrap;html=1;strokeWidth=3;rounded=1;fontFamily=Vazirmatn;fontSource=https%3A%2F%2Ffonts.googleapis.com%2Fcss%3Ffamily%3DVazirmatn;" vertex="1" parent="1">
          <mxGeometry x="2390" y="429" width="140" height="120" as="geometry" />
        </mxCell>
        <mxCell id="ImeqDuy5QfRWBbxiFpZr-205" value="&lt;b&gt;&amp;nbsp;کلیم کمی قطعه&lt;/b&gt;&lt;div&gt;&lt;b&gt;کلیم کیفی قطعه&lt;/b&gt;&lt;/div&gt;" style="text;strokeColor=none;fillColor=none;align=center;verticalAlign=middle;spacingLeft=4;spacingRight=4;overflow=hidden;points=[[0,0.5],[1,0.5]];portConstraint=eastwest;rotatable=0;whiteSpace=wrap;html=1;strokeWidth=3;rounded=1;fontFamily=Vazirmatn;fontSource=https%3A%2F%2Ffonts.googleapis.com%2Fcss%3Ffamily%3DVazirmatn;" vertex="1" parent="ImeqDuy5QfRWBbxiFpZr-204">
          <mxGeometry y="30" width="140" height="90" as="geometry" />
        </mxCell>
        <mxCell id="ImeqDuy5QfRWBbxiFpZr-244" style="edgeStyle=orthogonalEdgeStyle;rounded=0;orthogonalLoop=1;jettySize=auto;html=1;exitX=0.5;exitY=1;exitDx=0;exitDy=0;entryX=0.5;entryY=0;entryDx=0;entryDy=0;strokeWidth=3;" edge="1" parent="1" source="ImeqDuy5QfRWBbxiFpZr-206" target="ImeqDuy5QfRWBbxiFpZr-204">
          <mxGeometry relative="1" as="geometry" />
        </mxCell>
        <mxCell id="ImeqDuy5QfRWBbxiFpZr-206" value="&lt;b&gt;Cims&lt;/b&gt;" style="swimlane;fontStyle=0;childLayout=stackLayout;horizontal=1;startSize=30;horizontalStack=0;resizeParent=1;resizeParentMax=0;resizeLast=0;collapsible=1;marginBottom=0;whiteSpace=wrap;html=1;strokeWidth=3;rounded=1;fontFamily=Vazirmatn;fontSource=https%3A%2F%2Ffonts.googleapis.com%2Fcss%3Ffamily%3DVazirmatn;" vertex="1" parent="1">
          <mxGeometry x="2390" y="269" width="140" height="120" as="geometry" />
        </mxCell>
        <mxCell id="ImeqDuy5QfRWBbxiFpZr-207" value="&lt;b&gt;رخداد بازگشایی صندوق در&amp;nbsp;&lt;/b&gt;&lt;div&gt;&lt;b style=&quot;background-color: initial;&quot;&gt;انبار&lt;/b&gt;&lt;br&gt;&lt;/div&gt;&lt;div&gt;&lt;b style=&quot;background-color: initial;&quot;&gt;تبدیل صندوق به کالا&lt;/b&gt;&lt;/div&gt;" style="text;strokeColor=none;fillColor=none;align=center;verticalAlign=middle;spacingLeft=4;spacingRight=4;overflow=hidden;points=[[0,0.5],[1,0.5]];portConstraint=eastwest;rotatable=0;whiteSpace=wrap;html=1;strokeWidth=3;rounded=1;fontFamily=Vazirmatn;fontSource=https%3A%2F%2Ffonts.googleapis.com%2Fcss%3Ffamily%3DVazirmatn;" vertex="1" parent="ImeqDuy5QfRWBbxiFpZr-206">
          <mxGeometry y="30" width="140" height="90" as="geometry" />
        </mxCell>
        <mxCell id="ImeqDuy5QfRWBbxiFpZr-208" value="&lt;b&gt;ایریسا&lt;/b&gt;" style="swimlane;fontStyle=0;childLayout=stackLayout;horizontal=1;startSize=30;horizontalStack=0;resizeParent=1;resizeParentMax=0;resizeLast=0;collapsible=1;marginBottom=0;whiteSpace=wrap;html=1;strokeWidth=3;rounded=1;fontFamily=Vazirmatn;fontSource=https%3A%2F%2Ffonts.googleapis.com%2Fcss%3Ffamily%3DVazirmatn;" vertex="1" parent="1">
          <mxGeometry x="2570" y="269" width="140" height="120" as="geometry" />
        </mxCell>
        <mxCell id="ImeqDuy5QfRWBbxiFpZr-209" value="&lt;b&gt;جابه جایی بین دو انبار&lt;/b&gt;&lt;div&gt;&lt;b&gt;برای تغذیه خطوط&lt;/b&gt;&lt;/div&gt;&lt;div&gt;&lt;b&gt;براساس مجوز تولید لات&lt;/b&gt;&lt;/div&gt;" style="text;strokeColor=none;fillColor=none;align=center;verticalAlign=middle;spacingLeft=4;spacingRight=4;overflow=hidden;points=[[0,0.5],[1,0.5]];portConstraint=eastwest;rotatable=0;whiteSpace=wrap;html=1;strokeWidth=3;rounded=1;fontFamily=Vazirmatn;fontSource=https%3A%2F%2Ffonts.googleapis.com%2Fcss%3Ffamily%3DVazirmatn;" vertex="1" parent="ImeqDuy5QfRWBbxiFpZr-208">
          <mxGeometry y="30" width="140" height="90" as="geometry" />
        </mxCell>
        <mxCell id="ImeqDuy5QfRWBbxiFpZr-210" value="&lt;b&gt;ایریسا&lt;/b&gt;" style="swimlane;fontStyle=0;childLayout=stackLayout;horizontal=1;startSize=30;horizontalStack=0;resizeParent=1;resizeParentMax=0;resizeLast=0;collapsible=1;marginBottom=0;whiteSpace=wrap;html=1;strokeWidth=3;rounded=1;fontFamily=Vazirmatn;fontSource=https%3A%2F%2Ffonts.googleapis.com%2Fcss%3Ffamily%3DVazirmatn;" vertex="1" parent="1">
          <mxGeometry x="2750" y="269" width="140" height="120" as="geometry" />
        </mxCell>
        <mxCell id="ImeqDuy5QfRWBbxiFpZr-211" value="&lt;b&gt;حواله از طریق سیستم کانبان&lt;/b&gt;" style="text;strokeColor=none;fillColor=none;align=center;verticalAlign=middle;spacingLeft=4;spacingRight=4;overflow=hidden;points=[[0,0.5],[1,0.5]];portConstraint=eastwest;rotatable=0;whiteSpace=wrap;html=1;strokeWidth=3;rounded=1;fontFamily=Vazirmatn;fontSource=https%3A%2F%2Ffonts.googleapis.com%2Fcss%3Ffamily%3DVazirmatn;" vertex="1" parent="ImeqDuy5QfRWBbxiFpZr-210">
          <mxGeometry y="30" width="140" height="90" as="geometry" />
        </mxCell>
        <mxCell id="ImeqDuy5QfRWBbxiFpZr-213" style="edgeStyle=orthogonalEdgeStyle;rounded=0;orthogonalLoop=1;jettySize=auto;html=1;exitX=1;exitY=0.5;exitDx=0;exitDy=0;entryX=0;entryY=0.5;entryDx=0;entryDy=0;strokeWidth=3;" edge="1" parent="1" source="ImeqDuy5QfRWBbxiFpZr-105" target="ImeqDuy5QfRWBbxiFpZr-110">
          <mxGeometry relative="1" as="geometry" />
        </mxCell>
        <mxCell id="ImeqDuy5QfRWBbxiFpZr-215" style="edgeStyle=orthogonalEdgeStyle;rounded=0;orthogonalLoop=1;jettySize=auto;html=1;exitX=1;exitY=0.5;exitDx=0;exitDy=0;entryX=0;entryY=0.5;entryDx=0;entryDy=0;strokeWidth=3;curved=1;" edge="1" parent="1" source="ImeqDuy5QfRWBbxiFpZr-105" target="ImeqDuy5QfRWBbxiFpZr-112">
          <mxGeometry relative="1" as="geometry">
            <Array as="points">
              <mxPoint x="1465" y="-315" />
              <mxPoint x="1465" y="-465" />
            </Array>
          </mxGeometry>
        </mxCell>
        <mxCell id="ImeqDuy5QfRWBbxiFpZr-219" style="edgeStyle=orthogonalEdgeStyle;rounded=0;orthogonalLoop=1;jettySize=auto;html=1;exitX=1;exitY=0.5;exitDx=0;exitDy=0;entryX=0;entryY=0.5;entryDx=0;entryDy=0;curved=1;strokeWidth=3;" edge="1" parent="1" source="ImeqDuy5QfRWBbxiFpZr-119" target="ImeqDuy5QfRWBbxiFpZr-121">
          <mxGeometry relative="1" as="geometry" />
        </mxCell>
        <mxCell id="ImeqDuy5QfRWBbxiFpZr-221" style="edgeStyle=orthogonalEdgeStyle;rounded=0;orthogonalLoop=1;jettySize=auto;html=1;exitX=1;exitY=0.5;exitDx=0;exitDy=0;entryX=0;entryY=0.5;entryDx=0;entryDy=0;curved=1;strokeWidth=3;" edge="1" parent="1" source="ImeqDuy5QfRWBbxiFpZr-112" target="ImeqDuy5QfRWBbxiFpZr-114">
          <mxGeometry relative="1" as="geometry" />
        </mxCell>
        <mxCell id="ImeqDuy5QfRWBbxiFpZr-222" style="edgeStyle=orthogonalEdgeStyle;rounded=0;orthogonalLoop=1;jettySize=auto;html=1;exitX=1;exitY=0.5;exitDx=0;exitDy=0;entryX=0;entryY=0.5;entryDx=0;entryDy=0;curved=1;strokeWidth=3;" edge="1" parent="1" source="ImeqDuy5QfRWBbxiFpZr-110" target="ImeqDuy5QfRWBbxiFpZr-114">
          <mxGeometry relative="1" as="geometry" />
        </mxCell>
        <mxCell id="ImeqDuy5QfRWBbxiFpZr-223" value="&lt;b&gt;بازرگانی&lt;/b&gt;" style="swimlane;fontStyle=0;childLayout=stackLayout;horizontal=1;startSize=30;horizontalStack=0;resizeParent=1;resizeParentMax=0;resizeLast=0;collapsible=1;marginBottom=0;whiteSpace=wrap;html=1;strokeWidth=3;rounded=1;fontFamily=Vazirmatn;fontSource=https%3A%2F%2Ffonts.googleapis.com%2Fcss%3Ffamily%3DVazirmatn;" vertex="1" parent="1">
          <mxGeometry x="1875" y="-460" width="140" height="120" as="geometry" />
        </mxCell>
        <mxCell id="ImeqDuy5QfRWBbxiFpZr-224" value="&lt;b&gt;ارسال&amp;nbsp;&lt;/b&gt;&lt;div&gt;&lt;b&gt;IPI&lt;/b&gt;&lt;/div&gt;" style="text;strokeColor=none;fillColor=none;align=center;verticalAlign=middle;spacingLeft=4;spacingRight=4;overflow=hidden;points=[[0,0.5],[1,0.5]];portConstraint=eastwest;rotatable=0;whiteSpace=wrap;html=1;strokeWidth=3;rounded=1;fontFamily=Vazirmatn;fontSource=https%3A%2F%2Ffonts.googleapis.com%2Fcss%3Ffamily%3DVazirmatn;" vertex="1" parent="ImeqDuy5QfRWBbxiFpZr-223">
          <mxGeometry y="30" width="140" height="90" as="geometry" />
        </mxCell>
        <mxCell id="ImeqDuy5QfRWBbxiFpZr-226" style="edgeStyle=orthogonalEdgeStyle;rounded=0;orthogonalLoop=1;jettySize=auto;html=1;exitX=1;exitY=0.5;exitDx=0;exitDy=0;entryX=0;entryY=0.5;entryDx=0;entryDy=0;curved=1;strokeWidth=3;" edge="1" parent="1" source="ImeqDuy5QfRWBbxiFpZr-114" target="ImeqDuy5QfRWBbxiFpZr-224">
          <mxGeometry relative="1" as="geometry" />
        </mxCell>
        <mxCell id="ImeqDuy5QfRWBbxiFpZr-227" style="edgeStyle=orthogonalEdgeStyle;rounded=0;orthogonalLoop=1;jettySize=auto;html=1;exitX=1;exitY=0.5;exitDx=0;exitDy=0;entryX=0;entryY=0.5;entryDx=0;entryDy=0;curved=1;strokeWidth=3;" edge="1" parent="1" source="ImeqDuy5QfRWBbxiFpZr-224" target="ImeqDuy5QfRWBbxiFpZr-119">
          <mxGeometry relative="1" as="geometry" />
        </mxCell>
        <mxCell id="ImeqDuy5QfRWBbxiFpZr-229" value="" style="endArrow=none;dashed=1;html=1;dashPattern=1 3;strokeWidth=2;rounded=0;entryX=0.5;entryY=1;entryDx=0;entryDy=0;exitX=0.5;exitY=0;exitDx=0;exitDy=0;" edge="1" parent="1" source="ImeqDuy5QfRWBbxiFpZr-247" target="ImeqDuy5QfRWBbxiFpZr-113">
          <mxGeometry width="50" height="50" relative="1" as="geometry">
            <mxPoint x="1795" y="-260" as="sourcePoint" />
            <mxPoint x="1845" y="-310" as="targetPoint" />
          </mxGeometry>
        </mxCell>
        <mxCell id="ImeqDuy5QfRWBbxiFpZr-230" value="" style="endArrow=none;dashed=1;html=1;dashPattern=1 3;strokeWidth=2;rounded=1;entryX=0.5;entryY=1;entryDx=0;entryDy=0;exitX=0.5;exitY=0;exitDx=0;exitDy=0;curved=0;" edge="1" parent="1" source="ImeqDuy5QfRWBbxiFpZr-124" target="ImeqDuy5QfRWBbxiFpZr-122">
          <mxGeometry width="50" height="50" relative="1" as="geometry">
            <mxPoint x="2365" y="-210" as="sourcePoint" />
            <mxPoint x="2415" y="-260" as="targetPoint" />
          </mxGeometry>
        </mxCell>
        <mxCell id="ImeqDuy5QfRWBbxiFpZr-231" style="edgeStyle=orthogonalEdgeStyle;rounded=0;orthogonalLoop=1;jettySize=auto;html=1;exitX=1;exitY=0.5;exitDx=0;exitDy=0;entryX=0;entryY=0.5;entryDx=0;entryDy=0;curved=1;strokeWidth=3;" edge="1" parent="1" source="ImeqDuy5QfRWBbxiFpZr-121" target="ImeqDuy5QfRWBbxiFpZr-123">
          <mxGeometry relative="1" as="geometry" />
        </mxCell>
        <mxCell id="ImeqDuy5QfRWBbxiFpZr-232" style="edgeStyle=orthogonalEdgeStyle;rounded=0;orthogonalLoop=1;jettySize=auto;html=1;exitX=1;exitY=0.5;exitDx=0;exitDy=0;entryX=0;entryY=0.5;entryDx=0;entryDy=0;curved=1;strokeWidth=3;" edge="1" parent="1" source="ImeqDuy5QfRWBbxiFpZr-123" target="ImeqDuy5QfRWBbxiFpZr-126">
          <mxGeometry relative="1" as="geometry" />
        </mxCell>
        <mxCell id="ImeqDuy5QfRWBbxiFpZr-235" style="edgeStyle=orthogonalEdgeStyle;rounded=0;orthogonalLoop=1;jettySize=auto;html=1;exitX=1;exitY=0.5;exitDx=0;exitDy=0;entryX=0;entryY=0.5;entryDx=0;entryDy=0;strokeWidth=3;" edge="1" parent="1" source="ImeqDuy5QfRWBbxiFpZr-181" target="ImeqDuy5QfRWBbxiFpZr-195">
          <mxGeometry relative="1" as="geometry" />
        </mxCell>
        <mxCell id="ImeqDuy5QfRWBbxiFpZr-237" style="edgeStyle=orthogonalEdgeStyle;rounded=0;orthogonalLoop=1;jettySize=auto;html=1;exitX=1;exitY=0.5;exitDx=0;exitDy=0;entryX=0;entryY=0.5;entryDx=0;entryDy=0;strokeWidth=3;" edge="1" parent="1" source="ImeqDuy5QfRWBbxiFpZr-195" target="ImeqDuy5QfRWBbxiFpZr-197">
          <mxGeometry relative="1" as="geometry" />
        </mxCell>
        <mxCell id="ImeqDuy5QfRWBbxiFpZr-240" value="" style="edgeStyle=orthogonalEdgeStyle;rounded=0;orthogonalLoop=1;jettySize=auto;html=1;strokeWidth=3;" edge="1" parent="1" source="ImeqDuy5QfRWBbxiFpZr-199" target="ImeqDuy5QfRWBbxiFpZr-203">
          <mxGeometry relative="1" as="geometry" />
        </mxCell>
        <mxCell id="ImeqDuy5QfRWBbxiFpZr-241" style="edgeStyle=orthogonalEdgeStyle;rounded=0;orthogonalLoop=1;jettySize=auto;html=1;exitX=1;exitY=0.5;exitDx=0;exitDy=0;entryX=0;entryY=0.5;entryDx=0;entryDy=0;strokeWidth=3;" edge="1" parent="1" source="ImeqDuy5QfRWBbxiFpZr-203" target="ImeqDuy5QfRWBbxiFpZr-207">
          <mxGeometry relative="1" as="geometry" />
        </mxCell>
        <mxCell id="ImeqDuy5QfRWBbxiFpZr-242" style="edgeStyle=orthogonalEdgeStyle;rounded=0;orthogonalLoop=1;jettySize=auto;html=1;exitX=1;exitY=0.5;exitDx=0;exitDy=0;entryX=0;entryY=0.5;entryDx=0;entryDy=0;strokeWidth=3;" edge="1" parent="1" source="ImeqDuy5QfRWBbxiFpZr-207" target="ImeqDuy5QfRWBbxiFpZr-209">
          <mxGeometry relative="1" as="geometry" />
        </mxCell>
        <mxCell id="ImeqDuy5QfRWBbxiFpZr-243" style="edgeStyle=orthogonalEdgeStyle;rounded=0;orthogonalLoop=1;jettySize=auto;html=1;exitX=1;exitY=0.5;exitDx=0;exitDy=0;entryX=0;entryY=0.5;entryDx=0;entryDy=0;strokeWidth=3;" edge="1" parent="1" source="ImeqDuy5QfRWBbxiFpZr-209" target="ImeqDuy5QfRWBbxiFpZr-211">
          <mxGeometry relative="1" as="geometry" />
        </mxCell>
        <mxCell id="ImeqDuy5QfRWBbxiFpZr-245" style="edgeStyle=orthogonalEdgeStyle;rounded=1;orthogonalLoop=1;jettySize=auto;html=1;exitX=0.45;exitY=0.994;exitDx=0;exitDy=0;entryX=0.5;entryY=0;entryDx=0;entryDy=0;curved=0;strokeWidth=3;exitPerimeter=0;" edge="1" parent="1" source="ImeqDuy5QfRWBbxiFpZr-121" target="ImeqDuy5QfRWBbxiFpZr-147">
          <mxGeometry relative="1" as="geometry">
            <Array as="points">
              <mxPoint x="2308" y="-130" />
              <mxPoint x="1440" y="-130" />
            </Array>
          </mxGeometry>
        </mxCell>
        <mxCell id="ImeqDuy5QfRWBbxiFpZr-247" value="کدفنی و تعداد" style="whiteSpace=wrap;align=center;verticalAlign=middle;fontStyle=0;strokeWidth=3;fillColor=#FFFFCC;fontFamily=Vazirmatn;fontSource=https%3A%2F%2Ffonts.googleapis.com%2Fcss%3Ffamily%3DVazirmatn;" vertex="1" parent="1">
          <mxGeometry x="1680" y="-260" width="370" height="60" as="geometry" />
        </mxCell>
        <mxCell id="ImeqDuy5QfRWBbxiFpZr-248" value="خروج کانتینر از شرکت" style="ellipse;whiteSpace=wrap;html=1;fontFamily=Vazirmatn;fontSource=https%3A%2F%2Ffonts.googleapis.com%2Fcss%3Ffamily%3DVazirmatn;fontStyle=1" vertex="1" parent="1">
          <mxGeometry x="1380" y="490" width="120" height="80" as="geometry" />
        </mxCell>
      </root>
    </mxGraphModel>
  </diagram>
</mxfile>
